<?xml version="1.0"?><svg fill="#000000" xmlns="http://www.w3.org/2000/svg"  viewBox="0 0 50 50" width="50px" height="50px">    <path d="M 25 2 C 12.318 2 2 12.317 2 25 C 2 37.683 12.318 48 25 48 C 37.682 48 48 37.683 48 25 C 48 12.317 37.682 2 25 2 z M 25 7 C 34.947 7 43 15.053 43 25 C 43 34.947 34.947 43 25 43 C 15.053 43 7 34.947 7 25 C 7 15.053 15.053 7 25 7 z M 25 11 C 17.253 11 11 17.253 11 25 C 11 32.747 17.253 39 25 39 C 32.747 39 39 32.747 39 25 C 39 17.253 32.747 11 25 11 z M 24.96875 16.001953 L 23 22 L 16.544922 22 L 21.726562 25.908203 L 19.726562 32.091797 L 25 28.273438 L 30.273438 32.091797 L 28.273438 25.908203 L 33.455078 22 L 27 22 L 25.03125 16.001953 C 29.978746 16.019091 34 20.047566 34 25 C 34 29.963 29.962 34 25 34 C 20.038 34 16 29.963 16 25 C 16 20.047566 20.021254 16.019091 24.96875 16.001953 z"/></svg>