<?xml version="1.0"?><svg fill="#000000" xmlns="http://www.w3.org/2000/svg" viewBox="0 0 50 50" width="50px"
    height="50px">
    <path
        d="M 8.9296875 0.001953125 C 8.7544375 0.014453125 8.5835938 0.074234375 8.4335938 0.17773438 C 8.1335937 0.38473437 7.9698594 0.73660938 8.0058594 1.0996094 L 8.8417969 9.4589844 L 12.613281 15.117188 C 12.010281 8.4541875 12 2.94 12 2.875 C 12 2.541 12.167312 2.2289687 12.445312 2.0429688 C 12.459312 2.0339688 12.598797 1.9417344 12.841797 1.8027344 L 9.4472656 0.10546875 C 9.2842656 0.02396875 9.1049375 -0.010546875 8.9296875 0.001953125 z M 41.068359 0.001953125 C 40.893109 -0.010296875 40.716234 0.02396875 40.552734 0.10546875 L 37.15625 1.8027344 C 37.39825 1.9417344 37.540688 2.0339688 37.554688 2.0429688 C 37.833688 2.2289687 38 2.541 38 2.875 C 38 2.94 37.989578 8.4187344 37.392578 15.052734 L 41.152344 9.5273438 L 41.994141 1.0996094 C 42.030141 0.73660937 41.867406 0.38373437 41.566406 0.17773438 C 41.415906 0.074234375 41.243609 0.014203125 41.068359 0.001953125 z M 24 1.0253906 C 21.899 1.1213906 19.916594 1.5031563 18.308594 1.9101562 L 18.980469 14.615234 L 23.767578 20.361328 C 23.917578 20.540328 24 20.766 24 21 L 24 28 L 26 28 L 26 21 C 26 20.766 26.081469 20.539375 26.230469 20.359375 L 31.017578 14.615234 L 31.691406 1.90625 C 30.085406 1.50025 28.095 1.1213906 26 1.0253906 L 26 12 C 26 12.552 25.552 13 25 13 C 24.448 13 24 12.552 24 12 L 24 1.0253906 z M 33.666016 2.46875 L 32.998047 15.052734 C 32.986047 15.268734 32.906531 15.475625 32.769531 15.640625 L 28 21.361328 L 28 22.279297 L 35.048828 18.265625 C 35.836828 11.581625 35.972141 5.3213594 35.994141 3.4433594 C 35.681141 3.2723594 35.213906 3.0386875 34.628906 2.8046875 L 34.632812 2.7929688 C 34.369812 2.6999688 34.045016 2.58975 33.666016 2.46875 z M 16.333984 2.4707031 C 15.962984 2.5887031 15.625188 2.7009687 15.367188 2.7929688 L 15.371094 2.8027344 C 14.786094 3.0367344 14.319859 3.2713594 14.005859 3.4433594 C 14.028859 5.3333594 14.165797 11.665578 14.966797 18.392578 L 22 22.300781 L 22 21.361328 L 17.230469 15.640625 C 17.092469 15.474625 17.012953 15.267734 17.001953 15.052734 L 16.333984 2.4707031 z M 8.5136719 12.574219 C 8.2506719 13.897219 8 15.952 8 19 C 8 22.549 8.750375 25.323563 8.984375 26.101562 C 8.938375 26.668563 8.9007187 28.165266 9.3867188 30.572266 L 9.4003906 30.566406 C 10.230391 32.284406 11.494906 33.954 12.003906 34 L 14 34 C 14.379 34 14.724531 34.213734 14.894531 34.552734 L 17.894531 40.552734 C 18.086531 40.937734 18.012031 41.403031 17.707031 41.707031 L 15.28125 44.132812 C 18.34125 48.214813 21.374828 49.804578 21.548828 49.892578 C 21.688828 49.963578 21.843 50 22 50 L 28 50 C 28.157 50 28.311172 49.963578 28.451172 49.892578 C 28.626172 49.804578 31.695438 48.1975 34.773438 44.0625 L 32.417969 41.707031 C 32.112969 41.403031 32.038469 40.937734 32.230469 40.552734 L 35.230469 34.552734 C 35.400469 34.213734 35.746 34 36.125 34 L 38.125 34 C 38.588 33.957 39.731969 32.481969 40.542969 30.917969 C 41.104969 28.306969 41.063625 26.695562 41.015625 26.101562 C 41.249625 25.323563 42 22.549 42 19 C 42 15.962 41.750281 13.911891 41.488281 12.587891 L 36.826172 19.4375 C 36.740172 19.5635 36.626141 19.668141 36.494141 19.744141 L 28 24.582031 L 28 28.238281 C 28.367 28.303281 28.704375 28.373125 28.984375 28.453125 L 37 25 L 40 25 L 36 30 L 31.054688 30 L 28.949219 36.316406 C 28.839219 36.645406 28.567469 36.892656 28.230469 36.972656 C 28.154469 36.990656 28.077 37 28 37 C 27.738 37 27.481969 36.897031 27.292969 36.707031 C 27.272969 36.689031 26.519 36 25 36 C 23.481 36 22.726312 36.68975 22.695312 36.71875 C 22.506312 36.89575 22.256953 36.992187 22.001953 36.992188 C 21.921953 36.992188 21.840719 36.982891 21.761719 36.962891 C 21.431719 36.878891 21.160734 36.639406 21.052734 36.316406 L 18.945312 30 L 14 30 L 10 25 L 13 25 L 21.015625 28.453125 C 21.295625 28.374125 21.634 28.302328 22 28.236328 L 22 24.587891 L 13.515625 19.873047 C 13.375625 19.796047 13.255969 19.686687 13.167969 19.554688 L 8.5136719 12.574219 z M 25 30 C 22.973 30 21.816797 30.269375 21.216797 30.484375 L 22.550781 34.488281 C 23.151781 34.225281 23.967 34 25 34 C 26.033 34 26.848219 34.225281 27.449219 34.488281 L 28.785156 30.480469 C 28.198156 30.273469 27.04 30 25 30 z M 10.857422 35.662109 C 11.172422 36.520109 11.533984 37.430391 11.958984 38.400391 C 12.628984 39.932391 13.364094 41.279844 14.121094 42.464844 L 15.783203 40.802734 L 13.382812 36 L 12 36 C 11.608 36 11.225422 35.871109 10.857422 35.662109 z M 39.113281 35.742188 C 38.792281 35.901187 38.463 36 38.125 36 L 36.742188 36 L 34.341797 40.802734 L 35.925781 42.386719 C 36.665781 41.219719 37.386969 39.901344 38.042969 38.402344 C 38.453969 37.462344 38.805281 36.577188 39.113281 35.742188 z" />
</svg>