<svg version="1.0" xmlns="http://www.w3.org/2000/svg" width="50.000000pt" height="50.000000pt"
    viewBox="0 0 50.000000 50.000000" preserveAspectRatio="xMidYMid meet">

    <g transform="translate(0.000000,50.000000) scale(0.100000,-0.100000)" fill="#000000" stroke="none">
        <path d="M116 411 c-79 -80 -87 -91 -77 -110 7 -11 15 -21 19 -21 4 0 50 42
101 94 81 82 93 97 81 110 -7 9 -18 16 -24 16 -6 0 -51 -40 -100 -89z" />
        <path d="M172 357 l-82 -82 93 -93 92 -92 85 85 85 85 -90 90 c-49 50 -92 90
-95 90 -3 0 -42 -37 -88 -83z m146 -49 c19 -19 14 -28 -13 -28 -26 0 -33 -14
-13 -26 16 -10 -17 -23 -62 -23 l-35 0 34 15 c33 14 34 16 18 32 -16 16 -16
17 15 29 43 15 42 15 56 1z" />
        <path d="M370 155 c-90 -91 -94 -97 -76 -111 11 -7 22 -14 26 -14 3 0 46 41
95 90 75 75 88 93 79 107 -6 9 -15 18 -20 20 -5 2 -52 -40 -104 -92z" />
        <path d="M93 162 c-23 -20 -54 -47 -70 -59 -27 -21 -27 -23 -13 -50 9 -15 28
-34 43 -43 27 -14 29 -14 50 13 12 15 39 47 59 71 l37 43 -32 31 -32 31 -42
-37z" />
    </g>
</svg>