<svg version="1.0" xmlns="http://www.w3.org/2000/svg" width="32px" height="32px" viewBox="0 0 512.000000 512.000000"
        preserveAspectRatio="xMidYMid meet">

        <g transform="translate(0.000000,512.000000) scale(0.100000,-0.100000)" fill="#000000" stroke="none">
                <path d="M562 4269 c-26 -13 -55 -39 -70 -62 l-27 -41 -3 -1205 c-2 -663 0
-1225 3 -1249 7 -47 49 -103 96 -128 43 -22 3956 -21 3998 1 39 20 78 69 91
113 8 26 10 409 8 1253 l-3 1215 -27 41 c-16 24 -44 49 -70 62 l-44 21 -1955
0 -1954 0 -43 -21z m2032 -968 c263 -171 484 -315 492 -322 23 -19 18 -82 -8
-106 -33 -31 -935 -614 -969 -626 -24 -9 -33 -8 -56 9 -15 12 -31 32 -34 45
-12 41 -10 1224 1 1255 14 35 38 53 71 54 18 0 181 -100 503 -309z" />
                <path d="M2170 2926 l0 -465 352 229 c194 126 354 232 355 237 2 6 -350 238
-678 446 l-29 19 0 -466z" />
                <path d="M1175 983 c-70 -18 -82 -113 -19 -142 36 -16 2772 -16 2808 0 32 15
50 57 37 90 -21 58 76 54 -1425 55 -760 1 -1390 0 -1401 -3z" />
        </g>
</svg>